<mxfile host="app.diagrams.net" modified="2023-10-08T19:51:15.123Z" agent="Mozilla/5.0 (Windows NT 10.0; Win64; x64) AppleWebKit/537.36 (KHTML, like Gecko) Chrome/117.0.0.0 Safari/537.36" version="22.0.4" etag="M6zwiJ7pbMXY3WmYhhOr" type="github">
  <diagram name="Страница — 1" id="ruTBbqG2Ntu0pOw1rol_">
    <mxGraphModel>
      <root>
        <mxCell id="0" />
        <mxCell id="1" parent="0" />
      </root>
    </mxGraphModel>
  </diagram>
</mxfile>
